# xmcd CD database file generated by MAGIX-FreeDB-MP3_Maker_12 v2.0beta1
# 
# Track frame offsets:
#      150
#      14955
#      32415
#      45206
#      58582
#      72022
#      90206
#      103504
#      118242
#      128121
#      145047
#      156163
#      165738
#      178001
# 
# Disc length: 2555 seconds
# 
# Revision: 1 
# Processed by: cddbd v1.5.2PL0 Copyright (c) Steve Scherf et al.
# Submitted via: MAGIX-FreeDB-MP3_Maker_12 v2.0beta1
# 
DISCID=b109f90e
DTITLE=Marvin Gaye - Greatest Hits
DYEAR=1900
DGENRE=
TTITLE0=Marvin Gaye - I Heard It Through The Grapevine
TTITLE1=Marvin Gaye - What's Going On
TTITLE2=Marvin Gaye - Can I Get A Witness
TTITLE3=Marvin Gaye - The Onion Song
TTITLE4=Marvin Gaye - It Takes Two
TTITLE5=Marvin Gaye - Let's Get It On
TTITLE6=Marvin Gaye - How Sweet It Is (To Be Loved By You)
TTITLE7=Marvin Gaye - Mercy Mercy Me (The Ecology)
TTITLE8=Marvin Gaye - Wherever I Lay My Hat (That's My Home)
TTITLE9=Marvin Gaye - That's The Way Love Is
TTITLE10=Marvin Gaye - Hitch Hike
TTITLE11=Marvin Gaye - Pride And Joy
TTITLE12=Marvin Gaye - You're A Wonderful One
TTITLE13=Marvin Gaye - Your Precious Love
EXTD=
EXTT0=
EXTT1=
EXTT2=
EXTT3=
EXTT4=
EXTT5=
EXTT6=
EXTT7=
EXTT8=
EXTT9=
EXTT10=
EXTT11=
EXTT12=
EXTT13=
PLAYORDER=
